<?xml version="1.0" encoding="utf-8"?>
<!-- Generator: Adobe Illustrator 22.0.1, SVG Export Plug-In . SVG Version: 6.00 Build 0)  -->
<!DOCTYPE svg PUBLIC "-//W3C//DTD SVG 1.1//EN" "http://www.w3.org/Graphics/SVG/1.1/DTD/svg11.dtd">
<svg version="1.1" id="Layer_1" xmlns="http://www.w3.org/2000/svg" xmlns:xlink="http://www.w3.org/1999/xlink" x="0px" y="0px"
	 viewBox="0 0 227.4 63.4" style="enable-background:new 0 0 227.4 63.4;" xml:space="preserve">
<style type="text/css">
	.st0{fill:#414042;}
	.st1{fill:#33A3DC;}
	.st2{display:none;fill:none;}
</style>
<g>
	<path class="st0" d="M63.7,38.8c-4,0-6.6-3.1-6.6-7c0-3.8,2.6-6.9,6.6-6.9c3.9,0,6.6,3.1,6.6,6.9C70.3,35.7,67.7,38.8,63.7,38.8
		 M63.7,16.5c-9.2,0-15.8,6.4-15.8,15.2c0,8.9,6.6,15.5,15.8,15.5c9.2,0,15.8-6.6,15.8-15.5C79.5,22.9,72.9,16.5,63.7,16.5"/>
	<path class="st0" d="M93.3,17.1h-9.7v29.2h9.7V29.6c2.3-2.3,5.3-3.5,10-3.7v-9.3c-4.3,0-7.5,1.4-10,3.6V17.1z"/>
	<polygon class="st0" points="128.7,29 139.8,17.1 128.2,17.1 118,28.1 118,3.6 108.3,3.6 108.3,46.3 118,46.3 118,40.6 122.1,36.2 
		129.1,46.3 140.7,46.3 	"/>
	<path class="st0" d="M163.8,8.7c1.3,0,3.1,0.2,4.4,0.5l1.3-8.1c-2.9-0.8-5.4-1.1-7.8-1.1C154.4,0,149,5.2,149,13.7v3.5h-7.2v8.4
		h7.2v20.8h0V50c0,2.9-2,4.8-5.1,4.8c-1.3,0-3.1-0.2-4.5-0.5l-1.3,8.1c2.9,0.8,5.4,1.1,7.8,1.1c7.5,0,12.8-5.2,12.8-13.7v-3.5h0V38
		h0V25.5H169v-8.4h-10.3h0v-3.7C158.7,10.5,160.7,8.7,163.8,8.7"/>
	<path class="st0" d="M194.2,35.5c-1.7,1.9-3.5,2.9-5.4,2.9c-3.2,0-5.4-2-5.4-6.1V17.1h-9.7v16.7c0,8.3,5.1,13.4,12.4,13.4
		c3.1,0,5.7-1,8-2.8v1.9h9.7V17.1h-9.7V35.5z"/>
	<path class="st0" d="M223.1,38.5c-3.1,0-5.1-1.9-5.1-4.8v-5.2h0V16.3h0V7.9h0V4.4l-9.7-0.2v3.7h0v20.6v0.2v4.8
		c0,8.4,5.4,13.7,12.8,13.7c1.9,0,4-0.2,6.3-0.7V38C226,38.3,224.4,38.5,223.1,38.5"/>
	<polygon class="st0" points="36.8,46.3 28,46.3 23.4,31.4 18.7,46.3 10,46.3 0,17.4 10.1,17.4 14.7,32.9 19.6,17.4 27.2,17.4 
		32.1,32.8 36.6,17.4 46.7,17.4 	"/>
	<polygon class="st1" points="36.6,17.4 32.1,32.8 31.6,31.2 23.4,31.4 28,46.3 36.8,46.3 46.7,17.4 	"/>
</g>
<rect x="-102.3" y="-184.3" class="st2" width="432" height="432"/>
</svg>
