<?xml version="1.0" encoding="utf-8"?>
<!-- Generator: Adobe Illustrator 22.0.0, SVG Export Plug-In . SVG Version: 6.00 Build 0)  -->
<!DOCTYPE svg PUBLIC "-//W3C//DTD SVG 1.1//EN" "http://www.w3.org/Graphics/SVG/1.1/DTD/svg11.dtd">
<svg version="1.1" id="Layer_1" xmlns="http://www.w3.org/2000/svg" xmlns:xlink="http://www.w3.org/1999/xlink" x="0px" y="0px"
	 viewBox="0 0 719.2 193.5" style="enable-background:new 0 0 719.2 193.5;" xml:space="preserve">
<style type="text/css">
	.st0{display:none;fill:#414042;}
	.st1{fill:#FFFFFF;}
	.st2{fill:#33A3DC;}
</style>
<rect x="-180.4" y="-443.2" class="st0" width="1080" height="1080"/>
<g>
	<path class="st1" d="M194.4,118.3c-12.1,0-20.2-9.5-20.2-21.5c0-11.6,8.1-20.9,20.2-20.9c11.9,0,20,9.4,20,20.9
		C214.4,108.8,206.3,118.3,194.4,118.3 M194.2,50.3c-28.1,0-48.2,19.6-48.2,46.4c0,27.2,20.2,47.3,48.2,47.3
		c28.1,0,48.2-20.2,48.2-47.3C242.5,69.9,222.3,50.3,194.2,50.3"/>
	<path class="st1" d="M284.7,52.3H255v89h29.7V90.4c7-7,16.1-10.8,30.6-11.4V50.8c-13.2,0-22.7,4.2-30.6,11V52.3z"/>
	<polygon class="st1" points="392.5,88.6 426.3,52.3 390.9,52.3 359.9,85.7 359.9,11 330.2,11 330.2,141.2 359.9,141.2 359.9,123.8 
		372.4,110.4 393.6,141.2 429.2,141.2 	"/>
	<path class="st1" d="M499.6,26.4c4,0,9.4,0.7,13.6,1.7l4-24.8c-9-2.4-16.5-3.3-23.7-3.3c-22.7,0-39.1,16-39.1,41.6v10.6h-21.8v25.5
		h21.8v63.5h0v11.4c0,8.8-6.1,14.5-15.4,14.5c-4,0-9.4-0.7-13.6-1.7l-4,24.8c9,2.4,16.5,3.3,23.7,3.3c22.7,0,39.1-16,39.1-41.6
		v-10.6h0v-25.5h0v-38h31.4V52.3h-31.4h0V40.9C484.1,32.1,490.2,26.4,499.6,26.4"/>
	<path class="st1" d="M592.2,108.4c-5.1,5.7-10.8,8.8-16.3,8.8c-9.7,0-16.3-6-16.3-18.7V52.3h-29.7v50.8c0,25.3,15.4,40.9,38,40.9
		c9.5,0,17.2-3.1,24.4-8.6v5.9h29.7v-89h-29.7V108.4z"/>
	<path class="st1" d="M680.4,117.6c-9.4,0-15.4-5.7-15.4-14.5v-16h0V49.7h0V24.2h0V13.6l-29.7-0.7v11.4h0v62.9v0.6v14.7
		c0,25.7,16.3,41.6,39.1,41.6c5.9,0,12.1-0.7,19.2-2.2V116C689.4,116.9,684.3,117.6,680.4,117.6"/>
	<g>
		<path class="st1" d="M700.4,3.1v9.7h-3.3V3.1h-3.5V0h10.4v3.1H700.4z M708.1,12.8h-3.3V0h4.3l3,6.4l3-6.4h4.2v12.8h-3.3V6
			l-2.9,5.8h-2.1L708.1,6V12.8z"/>
	</g>
	<g>
		<g>
			<polyline class="st1" points="71.3,95.8 96.5,95.6 82.9,53 59.7,53 44.7,100.3 30.9,53 0,53 30.4,141.2 57.1,141.2 71.3,95.8 			
				"/>
		</g>
		<polygon class="st2" points="111.7,53 97.9,99.9 96.5,95.6 71.3,95.8 85.3,141.2 112.2,141.2 142.4,53 		"/>
	</g>
</g>
</svg>
